#!OML:ASF F:\VICON\USERDATA\INSTALL\rory3\rory3.ASF
:FULLY-SPECIFIED
:DEGREES
988
root 0.590683 18.1241 3.44591 -2.10544 -1.88163 -358.676
lowerback 8.19479 0.398924 -2.08725
upperback -0.250963 0.343423 0.291823
thorax -4.87525 0.225285 1.43536
lowerneck -20.2421 -6.75615 -14.004
upperneck 29.2054 -8.33627 10.2949
head 14.5373 -3.81233 5.04188
rclavicle 5.86104e-015 6.75868e-015
rhumerus -33.6671 -9.85001 -84.0937
rradius 28.3563
rwrist 8.56718
rhand -14.6054 8.41379
rfingers 7.12502
rthumb 11.5453 -21.2482
lclavicle 5.86104e-015 6.75868e-015
lhumerus -34.6708 4.23308 86.3169
lradius 29.6361
lwrist -8.63109
lhand -17.7265 24.332
lfingers 7.12502
lthumb 8.53424 54.1395
rfemur -4.54398 2.13582 19.5533
rtibia 23.8484
rfoot -13.0174 -2.00784
rtoes -0.688007
lfemur 2.74411 -3.67282 -22.6811
ltibia 10.368
lfoot -5.76605 -0.163008
ltoes -6.65757
989
root 0.591521 18.1229 3.44586 -2.08878 -1.83771 -358.725
lowerback 8.19526 0.349987 -2.04294
upperback -0.258117 0.28139 0.270227
thorax -4.88005 0.193358 1.39558
lowerneck -19.8997 -7.03246 -14.1744
upperneck 28.9099 -8.73301 10.35
head 14.4105 -4.0015 5.00464
rclavicle -1.48219e-014 -1.0138e-014
rhumerus -33.5941 -9.69594 -84.2475
rradius 28.3137
rwrist 8.51713
rhand -14.6554 8.49461
rfingers 7.12502
rthumb 11.4971 -21.1701
lclavicle -1.48219e-014 -1.0138e-014
lhumerus -34.7006 4.31896 86.1876
lradius 29.6311
lwrist -8.35633
lhand -17.5193 24.2133
lfingers 7.12502
lthumb 8.73421 54.0126
rfemur -4.56801 2.09498 19.6054
rtibia 23.8193
rfoot -12.9597 -2.05053
rtoes -0.867997
lfemur 2.67279 -3.64488 -22.6212
ltibia 10.461
lfoot -5.80752 -0.249168
ltoes -6.92517
990
root 0.592177 18.1237 3.44608 -2.07945 -1.80925 -358.775
lowerback 8.13169 0.304156 -2.00422
upperback -0.203821 0.225386 0.258285
thorax -4.78502 0.16315 1.36838
lowerneck -19.4892 -7.33424 -14.4
upperneck 28.4442 -9.15746 10.449
head 14.2072 -4.20388 4.98444
rclavicle -2.45685e-015 3.47873e-015
rhumerus -33.429 -9.55072 -84.4167
rradius 28.2714
rwrist 8.44847
rhand -14.5692 8.5847
rfingers 7.12502
rthumb 11.5802 -21.0754
lclavicle -2.45685e-015 3.47873e-015
lhumerus -34.6034 4.50609 86.0398
lradius 29.6311
lwrist -8.26937
lhand -17.4138 24.1009
lfingers 7.12502
lthumb 8.83607 53.8959
rfemur -4.56069 2.06594 19.6617
rtibia 23.8087
rfoot -12.9457 -2.06775
rtoes -1.12606
lfemur 2.62724 -3.66213 -22.5661
ltibia 10.5241
lfoot -5.80818 -0.266431
ltoes -6.66626
991
root 0.592967 18.1234 3.44672 -2.06224 -1.81877 -358.772
lowerback 8.02623 0.280208 -2.02172
upperback -0.155549 0.193464 0.234784
thorax -4.67397 0.145972 1.35782
lowerneck -19.0397 -7.67196 -14.8125
upperneck 28.0129 -9.64505 10.7399
head 14.0499 -4.43261 5.06788
rclavicle -1.963e-015 -3.67752e-015
rhumerus -33.3593 -9.43529 -84.5506
rradius 28.3033
rwrist 8.38084
rhand -14.545 8.80809
rfingers 7.12502
rthumb 11.6036 -20.8506
lclavicle -1.963e-015 -3.67752e-015
lhumerus -34.5565 4.69455 85.9012
lradius 29.6439
lwrist -8.23369
lhand -17.2689 24.144
lfingers 7.12502
lthumb 8.97589 53.9331
rfemur -4.57818 2.08621 19.6607
rtibia 23.8279
rfoot -12.9761 -2.08425
rtoes -1.26515
lfemur 2.61778 -3.63218 -22.571
ltibia 10.5037
lfoot -5.78835 -0.271657
ltoes -6.56629
992
root 0.594001 18.1236 3.44718 -2.02853 -1.81494 -358.697
lowerback 7.95513 0.256521 -2.11273
upperback -0.15939 0.152789 0.188998
thorax -4.63655 0.12709 1.36635
lowerneck -18.6848 -8.00247 -15.0837
upperneck 27.7744 -10.127 10.8834
head 13.981 -4.66206 5.07288
rclavicle -4.46644e-015 -9.64106e-015
rhumerus -33.3688 -9.44085 -84.6164
rradius 28.3278
rwrist 8.46286
rhand -14.5728 9.05408
rfingers 7.12502
rthumb 11.5767 -20.6062
lclavicle -4.46644e-015 -9.64106e-015
lhumerus -34.6898 4.73191 85.8145
lradius 29.7956
lwrist -8.06345
lhand -17.2033 24.1086
lfingers 7.12502
lthumb 9.03915 53.8949
rfemur -4.62785 2.09303 19.5681
rtibia 23.8527
rfoot -12.9572 -2.08572
rtoes -1.17514
lfemur 2.60186 -3.59897 -22.6517
ltibia 10.4552
lfoot -5.80243 -0.313632
ltoes -6.56536
993
root 0.59492 18.125 3.44867 -2.00481 -1.83576 -358.627
lowerback 7.915 0.240209 -2.22876
upperback -0.164548 0.120606 0.177402
thorax -4.6184 0.113584 1.4234
lowerneck -18.398 -8.34126 -15.2936
upperneck 27.5604 -10.6019 10.9289
head 13.9274 -4.89237 5.02739
rclavicle 3.66509e-016 -3.57812e-015
rhumerus -33.3163 -9.36049 -84.6677
rradius 28.305
rwrist 8.46131
rhand -14.6664 9.1131
rfingers 7.12502
rthumb 11.4865 -20.5522
lclavicle 3.66509e-016 -3.57812e-015
lhumerus -34.7776 4.82225 85.75
lradius 29.9446
lwrist -8.23733
lhand -17.294 24.0117
lfingers 7.12502
lthumb 8.95168 53.8018
rfemur -4.65884 2.13054 19.4834
rtibia 23.8621
rfoot -12.9156 -2.10829
rtoes -1.2563
lfemur 2.60155 -3.58098 -22.7328
ltibia 10.4236
lfoot -5.82551 -0.295199
ltoes -6.7227
994
root 0.596813 18.1258 3.4519 -2.01174 -1.88936 -358.695
lowerback 7.87648 0.218685 -2.18983
upperback -0.137929 0.0972893 0.188071
thorax -4.56789 0.100469 1.41532
lowerneck -18.1036 -8.67568 -15.4649
upperneck 27.2805 -11.0942 11.0216
head 13.849 -5.1205 4.98951
rclavicle -6.9761e-015 -9.44227e-015
rhumerus -33.209 -9.20257 -84.7809
rradius 28.2636
rwrist 8.47123
rhand -14.6651 8.97073
rfingers 7.12502
rthumb 11.4878 -20.6945
lclavicle -6.9761e-015 -9.44227e-015
lhumerus -34.7847 4.99903 85.6121
lradius 30.005
lwrist -8.58671
lhand -17.4503 24.0956
lfingers 7.12502
lthumb 8.80082 53.8921
rfemur -4.65941 2.12117 19.5523
rtibia 23.8804
rfoot -12.919 -2.05219
rtoes -1.30579
lfemur 2.68059 -3.54544 -22.6606
ltibia 10.3139
lfoot -5.74336 -0.28644
ltoes -6.50209
995
root 0.598265 18.1255 3.45505 -2.01765 -1.91463 -358.738
lowerback 7.87385 0.184183 -2.16893
upperback -0.143147 0.0523724 0.168678
thorax -4.56994 0.0776043 1.38867
lowerneck -17.7423 -8.98473 -15.5971
upperneck 27.0112 -11.5822 11.1387
head 13.7609 -5.34322 4.95853
rclavicle 2.83734e-015 -3.47873e-015
rhumerus -33.137 -9.15901 -84.8937
rradius 28.1687
rwrist 8.60525
rhand -14.6966 8.84443
rfingers 7.12502
rthumb 11.4574 -20.8225
lclavicle 2.83734e-015 -3.47873e-015
lhumerus -34.8302 4.97795 85.5335
lradius 29.9963
lwrist -8.26605
lhand -17.2813 24.2523
lfingers 7.12502
lthumb 8.96391 54.0419
rfemur -4.65177 2.05554 19.5946
rtibia 23.9038
rfoot -12.9912 -2.01124
rtoes -1.77041
lfemur 2.76753 -3.50002 -22.613
ltibia 10.1766
lfoot -5.64196 -0.330046
ltoes -6.16662
996
root 0.599518 18.1274 3.45894 -2.04356 -1.92711 -358.687
lowerback 7.91384 0.131246 -2.25812
upperback -0.166692 -0.0300666 0.117843
thorax -4.61375 0.0389837 1.39578
lowerneck -17.2757 -9.30131 -15.7277
upperneck 26.6956 -12.0666 11.1727
head 13.6255 -5.57889 4.89537
rclavicle 2.00338e-016 1.39149e-015
rhumerus -33.1301 -9.15041 -85.0113
rradius 28.1385
rwrist 8.72005
rhand -14.5288 8.87587
rfingers 7.12502
rthumb 11.6191 -20.782
lclavicle 2.00338e-016 1.39149e-015
lhumerus -34.9114 4.91928 85.4339
lradius 30.0076
lwrist -7.85907
lhand -17.1418 24.347
lfingers 7.12502
lthumb 9.09852 54.1307
rfemur -4.60493 2.01466 19.5254
rtibia 23.9229
rfoot -13.0881 -1.91929
rtoes -1.70263
lfemur 2.86656 -3.4727 -22.6775
ltibia 10.0774
lfoot -5.58223 -0.320417
ltoes -6.17846
